HIERARCHY
ROOT Pelvis
{
	OFFSET 0.000000 0.000000 0.000000
	CHANNELS 6 Xposition Yposition Zposition Xrotation Yrotation Zrotation
	JOINT LeftUpLeg_virtual
	{
		OFFSET 0.000000 0.000000 0.000000
		CHANNELS 3 Xrotation Yrotation Zrotation
		JOINT LeftUpLeg
		{
			OFFSET 18.735201 -5.666702 -4.541200
			CHANNELS 3 Xrotation Yrotation Zrotation
			JOINT LeftLeg
			{
				OFFSET -0.021200 -31.938179 0.493100
				CHANNELS 3 Xrotation Yrotation Zrotation
				JOINT LeftFoot
				{
					OFFSET 0.021200 -31.938179 -4.336299
					CHANNELS 3 Xrotation Yrotation Zrotation
					JOINT LeftToeBase
					{
						OFFSET 0.943001 -26.722000 15.023500
						CHANNELS 3 Xrotation Yrotation Zrotation
						End Site
						{
							OFFSET 0 0 0
						}
					}
				}
			}
		}
	}
	JOINT RightUpLeg_virtual
	{
		OFFSET 0.000000 0.000000 0.000000
		CHANNELS 3 Xrotation Yrotation Zrotation
		JOINT RightUpLeg
		{
			OFFSET -18.735201 -5.666702 -4.541200
			CHANNELS 3 Xrotation Yrotation Zrotation
			JOINT RightLeg
			{
				OFFSET 0.018946 -31.938133 0.493100
				CHANNELS 3 Xrotation Yrotation Zrotation
				JOINT RightFoot
				{
					OFFSET -0.018946 -31.938126 -4.336299
					CHANNELS 3 Xrotation Yrotation Zrotation
					JOINT RightToeBase
					{
						OFFSET -0.943001 -26.722004 15.023500
						CHANNELS 3 Xrotation Yrotation Zrotation
						End Site
						{
							OFFSET 0 0 0
						}
					}
				}
			}
		}
	}
	JOINT Hips_virtual
	{
		OFFSET 0.000000 0.000000 0.000000
		CHANNELS 3 Xrotation Yrotation Zrotation
		JOINT Hips
		{
			OFFSET -0.000000 -0.000000 -0.000000
			CHANNELS 3 Xrotation Yrotation Zrotation
			JOINT Spine
			{
				OFFSET 0.000000 10.199997 -0.299500
				CHANNELS 3 Xrotation Yrotation Zrotation
				JOINT Spine1
				{
					OFFSET 0.000000 11.900002 -1.516600
					CHANNELS 3 Xrotation Yrotation Zrotation
					JOINT Spine2
					{
						OFFSET 0.000000 13.600006 -2.842500
						CHANNELS 3 Xrotation Yrotation Zrotation
						JOINT Neck_virtual
						{
							OFFSET 0.000000 0.000000 0.000000
							CHANNELS 3 Xrotation Yrotation Zrotation
							JOINT Neck
							{
								OFFSET 0.000000 9.624100 -2.890100
								CHANNELS 3 Xrotation Yrotation Zrotation
								JOINT Head
								{
									OFFSET 0.000000 14.068802 -1.351900
									CHANNELS 3 Xrotation Yrotation Zrotation
									End Site
									{
										OFFSET 0 0 0
									}
								}
							}
						}
						JOINT LeftShoulder_virtual
						{
							OFFSET 0.000000 0.000000 0.000000
							CHANNELS 3 Xrotation Yrotation Zrotation
							JOINT LeftShoulder
							{
								OFFSET 15.263000 10.923401 -0.547700
								CHANNELS 3 Xrotation Yrotation Zrotation
								JOINT LeftArm
								{
									OFFSET 25.438599 -2.830597 -13.032500
									CHANNELS 3 Xrotation Yrotation Zrotation
									JOINT LeftForeArm
									{
										OFFSET 29.960503 0.000000 0.000000
										CHANNELS 3 Xrotation Yrotation Zrotation
										JOINT LeftHand
										{
											OFFSET 27.849251 0.000000 0.000000
											CHANNELS 3 Xrotation Yrotation Zrotation
											End Site
											{
												OFFSET 0 0 0
											}
										}
									}
								}
							}
						}
						JOINT RightShoulder_virtual
						{
							OFFSET 0.000000 0.000000 0.000000
							CHANNELS 3 Xrotation Yrotation Zrotation
							JOINT RightShoulder
							{
								OFFSET -15.263000 10.923401 -0.547700
								CHANNELS 3 Xrotation Yrotation Zrotation
								JOINT RightArm
								{
									OFFSET -25.438599 -2.830597 -13.032500
									CHANNELS 3 Xrotation Yrotation Zrotation
									JOINT RightForeArm
									{
										OFFSET -29.960503 0.000000 0.000000
										CHANNELS 3 Xrotation Yrotation Zrotation
										JOINT RightHand
										{
											OFFSET -27.849251 0.000000 0.000000
											CHANNELS 3 Xrotation Yrotation Zrotation
											End Site
											{
												OFFSET 0 0 0
											}
										}
									}
								}
							}
						}
					}
				}
			}
		}
	}
}
MOTION
Frames: 10
Frame Time: 0.03333333
9.170382 94.823792 0.246468 0.000000 0.000000 0.000000 -0.530582 -18.544211 -1.982918 -10.835976 7.107248 -2.478664 22.641293 9.667712 2.870218 -13.939410 18.712681 1.413633 0.000000 0.000000 0.000000 -0.530582 -18.544211 -1.982918 -12.960220 -7.183587 -13.114180 16.012286 2.833961 2.519685 -13.806163 -4.053456 7.982192 0.000000 0.000000 0.000000 -0.530582 -18.544211 -1.982918 0.000000 0.000000 0.000000 4.478293 1.681774 -2.361024 0.263397 0.569450 -0.234719 0.000000 0.000000 0.000000 0.259934 0.575305 -0.235202 -0.243987 0.111420 1.220605 0.000000 0.000000 0.000000 0.259934 0.575305 -0.235202 2.655928 -4.173621 -12.024668 -11.354761 -17.200412 -60.369194 -0.000001 -14.732015 -0.000001 0.000000 0.000000 0.000000 0.259934 0.575305 -0.235202 2.178413 0.469370 15.702948 6.014229 -0.860595 63.957762 -0.000001 14.800957 -0.000030 0.000000 0.000000 0.000000 
9.653291 94.807121 0.458168 0.000000 0.000000 0.000000 -0.400632 -19.208189 -2.210074 -10.874544 7.086365 -2.754143 22.681976 9.687350 2.922704 -14.135217 19.351982 1.823780 0.000000 0.000000 0.000000 -0.400632 -19.208189 -2.210074 -12.927836 -7.130747 -12.971057 15.525232 3.155188 2.552913 -14.025666 -4.011337 7.505991 0.000000 0.000000 0.000000 -0.400632 -19.208189 -2.210074 0.000000 -0.000001 0.000000 4.348729 1.231104 -2.470964 0.212745 0.451137 -0.248040 0.000000 0.000000 0.000000 0.209997 0.457549 -0.249456 -0.267654 0.154069 1.295297 0.000000 0.000000 0.000000 0.209997 0.457549 -0.249456 2.666471 -4.458575 -11.991965 -11.925376 -18.438342 -60.942629 0.000005 -15.296893 0.000013 0.000000 0.000000 0.000000 0.209997 0.457549 -0.249456 2.229752 0.128999 15.927381 5.674424 -0.408657 64.436954 0.000006 15.408092 -0.000001 0.000000 0.000000 0.000000 
10.081862 94.789642 0.654671 0.000000 0.000000 0.000000 -0.220615 -19.792570 -2.397180 -10.967359 7.078680 -2.964737 22.671860 9.699710 2.945179 -14.225746 19.902457 2.179448 0.000000 0.000000 0.000000 -0.220615 -19.792570 -2.397180 -12.842738 -7.108015 -12.838679 14.996795 3.247931 2.537624 -14.289601 -3.994145 7.179969 0.000000 0.000000 0.000000 -0.220615 -19.792570 -2.397180 0.000000 0.000001 0.000000 4.210713 0.703814 -2.647215 0.165081 0.312362 -0.289361 0.000000 0.000000 0.000000 0.163354 0.319514 -0.292050 -0.293527 0.189541 1.380713 0.000000 0.000000 0.000000 0.163354 0.319514 -0.292050 2.633634 -4.716146 -11.762446 -12.145296 -19.959020 -61.514630 -0.000013 -16.226665 -0.000004 0.000000 0.000000 0.000000 0.163354 0.319514 -0.292050 2.301185 -0.222081 16.229416 5.160329 0.078144 64.897814 -0.000000 15.935554 0.000004 0.000000 0.000000 0.000000 
10.461012 94.774567 0.838848 0.000000 0.000000 0.000000 0.091559 -20.337194 -2.519561 -11.153666 7.031672 -3.201851 22.606138 9.712059 3.018280 -14.362660 20.478854 2.518204 0.000000 0.000000 0.000000 0.091559 -20.337194 -2.519561 -12.829400 -7.082274 -12.682623 14.395723 3.243085 2.513980 -14.473186 -3.973034 6.855694 0.000000 0.000000 0.000000 0.091559 -20.337194 -2.519561 0.000000 0.000000 0.000000 3.984582 0.153097 -2.910128 0.108365 0.169807 -0.345939 0.000000 0.000000 0.000000 0.107950 0.177826 -0.350153 -0.321894 0.216291 1.475471 0.000000 0.000000 0.000000 0.107950 0.177826 -0.350153 2.588619 -4.869842 -11.506930 -12.196950 -21.829838 -61.937207 -0.000008 -17.471484 -0.000009 0.000000 0.000000 0.000000 0.107950 0.177826 -0.350153 2.389270 -0.693202 16.609287 4.537149 0.660913 65.259555 0.000003 16.375640 -0.000016 0.000000 0.000000 0.000000 
10.787354 94.764397 1.016167 0.000000 0.000000 0.000000 0.532131 -20.834701 -2.616647 -11.478297 6.973980 -3.382712 22.548884 9.722584 3.122680 -14.510706 21.011359 2.809264 0.000000 0.000000 0.000000 0.532131 -20.834701 -2.616647 -12.828661 -7.062399 -12.451718 13.581855 3.148120 2.510094 -14.427480 -3.935500 6.508439 0.000000 0.000000 0.000000 0.532131 -20.834701 -2.616647 0.000000 0.000000 0.000000 3.665757 -0.366621 -3.237223 0.048453 0.035361 -0.422422 0.000000 0.000000 0.000000 0.049647 0.044187 -0.428282 -0.348470 0.229384 1.585517 0.000000 0.000000 0.000000 0.049647 0.044187 -0.428282 2.538560 -4.996352 -11.236845 -12.203161 -23.916053 -62.274817 -0.000009 -18.845183 -0.000016 0.000000 0.000000 0.000000 0.049647 0.044187 -0.428282 2.503074 -1.271408 17.102498 3.843676 1.244930 65.482724 -0.000004 16.670665 0.000002 0.000000 0.000000 0.000000 
11.060009 94.751587 1.191650 0.000000 0.000000 0.000000 1.011484 -21.242638 -2.691465 -11.869045 6.890176 -3.530683 22.489959 9.733986 3.275636 -14.558412 21.508322 3.004605 0.000000 0.000000 0.000000 1.011484 -21.242638 -2.691465 -12.727903 -7.056085 -12.216243 12.645899 2.907812 2.471792 -14.356212 -3.922021 6.340068 0.000000 0.000000 0.000000 1.011484 -21.242638 -2.691465 0.000000 -0.000001 0.000000 3.341488 -0.904641 -3.630755 -0.000236 -0.102657 -0.507739 0.000000 0.000000 0.000000 0.002964 -0.093057 -0.515360 -0.375334 0.234815 1.702145 0.000000 0.000000 0.000000 0.002964 -0.093057 -0.515360 2.475102 -5.227726 -10.890656 -12.060457 -25.828948 -62.657130 0.000008 -20.450452 0.000008 0.000000 0.000000 0.000000 0.002964 -0.093057 -0.515360 2.613132 -1.829994 17.585592 3.121777 1.709663 65.690813 -0.000003 16.890754 0.000010 0.000000 0.000000 0.000000 
11.273256 94.732086 1.359783 0.000000 0.000000 0.000000 1.540419 -21.520540 -2.705801 -12.332766 6.761834 -3.670342 22.374361 9.741424 3.474910 -14.404294 21.960825 3.082794 0.000000 0.000000 0.000000 1.540419 -21.520540 -2.705801 -12.587755 -7.058688 -12.031598 11.663000 2.523468 2.382986 -14.250550 -3.941662 6.395624 0.000000 0.000000 0.000000 1.540419 -21.520540 -2.705801 0.000000 0.000002 0.000000 3.024688 -1.549928 -4.147242 -0.035741 -0.264688 -0.599084 0.000000 0.000000 0.000000 -0.029853 -0.254269 -0.608749 -0.409728 0.237150 1.835687 0.000000 0.000000 0.000000 -0.029853 -0.254269 -0.608749 2.395737 -5.560257 -10.447328 -11.802109 -27.261606 -63.129068 0.000009 -22.244987 0.000008 0.000000 0.000000 0.000000 -0.029853 -0.254269 -0.608749 2.706379 -2.318900 18.001657 2.543635 2.271843 65.871881 0.000003 17.206964 -0.000024 0.000000 0.000000 0.000000 
11.438455 94.713516 1.502499 0.000000 0.000000 0.000000 2.101414 -21.654987 -2.709137 -12.899138 6.655070 -3.697020 22.294460 9.743911 3.630921 -14.129473 22.233567 3.082708 0.000000 0.000000 0.000000 2.101414 -21.654987 -2.709137 -12.410946 -7.093017 -11.842736 10.528502 2.081782 2.320066 -13.907799 -3.958252 6.490997 0.000000 0.000000 0.000000 2.101414 -21.654987 -2.709137 0.000000 0.000001 0.000000 2.754917 -2.275521 -4.762787 -0.062150 -0.444093 -0.699511 0.000000 0.000000 0.000000 -0.052828 -0.432646 -0.711438 -0.447520 0.232076 1.984292 0.000000 0.000000 0.000000 -0.052828 -0.432646 -0.711438 2.312856 -5.946079 -9.923331 -11.459922 -28.388577 -63.583071 0.000010 -23.957408 0.000013 0.000000 0.000000 0.000000 -0.052828 -0.432646 -0.711438 2.792779 -2.708290 18.383569 2.162688 2.907625 65.964505 -0.000001 17.596027 0.000015 0.000000 0.000000 0.000000 
11.572184 94.696465 1.612564 0.000000 0.000000 0.000000 2.602482 -21.730192 -2.771909 -13.498955 6.556423 -3.673573 22.407525 9.762161 3.821603 -14.052905 22.415924 3.064124 0.000000 0.000000 0.000000 2.602482 -21.730192 -2.771909 -12.165012 -7.113474 -11.557523 9.426423 1.663074 2.273418 -13.630555 -3.964920 6.476115 0.000000 0.000000 0.000000 2.602482 -21.730192 -2.771909 0.000000 0.000000 0.000000 2.619694 -2.903514 -5.395829 -0.079052 -0.592439 -0.796185 0.000000 0.000000 0.000000 -0.066384 -0.579566 -0.810115 -0.474721 0.221780 2.116947 0.000000 0.000000 0.000000 -0.066384 -0.579566 -0.810115 2.237994 -6.352272 -9.452236 -11.078411 -29.367792 -63.864652 -0.000004 -25.495793 -0.000016 0.000000 0.000000 0.000000 -0.066384 -0.579566 -0.810115 2.864972 -3.026332 18.704581 1.965933 3.449103 66.018744 -0.000002 18.025448 0.000000 0.000000 0.000000 0.000000 
11.672652 94.676773 1.707760 0.000000 0.000000 0.000000 3.057291 -21.832350 -2.901168 -14.130364 6.457931 -3.626585 22.739057 9.803350 4.091036 -14.241184 22.596399 3.025700 0.000000 0.000000 0.000000 3.057291 -21.832350 -2.901168 -11.889439 -7.075445 -11.110831 8.542362 1.186920 2.177576 -13.714317 -3.969192 6.285670 0.000000 0.000000 0.000000 3.057291 -21.832350 -2.901168 0.000000 0.000000 0.000000 2.573925 -3.317863 -5.978871 -0.083915 -0.682048 -0.879798 0.000000 0.000000 0.000000 -0.068758 -0.667784 -0.895028 -0.483444 0.211708 2.219167 0.000000 0.000000 0.000000 -0.068758 -0.667784 -0.895028 2.192511 -6.699673 -9.144823 -10.753830 -30.226650 -63.887793 0.000012 -26.863807 0.000019 0.000000 0.000000 0.000000 -0.068758 -0.667784 -0.895028 2.903597 -3.345712 18.896838 1.889104 3.837607 66.112652 0.000005 18.343578 0.000005 0.000000 0.000000 0.000000 
